PathFileType	4	(X/Y/Z)	./resultDataOpenSim/trcMotMarkerGrf/sub09/qtm-12-06.trc
DataRate	CameraRate	NumFrames	NumMarkers	Units	OrigDataRate	OrigDataStartFrame	OrigNumFrames
250.000000	250.000000	13	24	m	250.000000	241	480
Frame#	Time	L.Toe.Tip			R.Toe.Tip			L.Ankle.Lat			R.Ankle.Lat			L.Ankle.Med			R.Ankle.Med			L.Heel			R.Heel			L.Knee.Lat			R.Knee.Lat			L.Knee.Med			R.Knee.Med			L.Thigh.Upper			R.Thigh.Upper			L.ASIS			R.ASIS			V.Sacral			L.Acromium			R.Acromium			C7			L.Elbow			R.Elbow			L.Wrist.Lat			R.Wrist.Lat
		X1	Y1	Z1	X2	Y2	Z2	X3	Y3	Z3	X4	Y4	Z4	X5	Y5	Z5	X6	Y6	Z6	X7	Y7	Z7	X8	Y8	Z8	X9	Y9	Z9	X10	Y10	Z10	X11	Y11	Z11	X12	Y12	Z12	X13	Y13	Z13	X14	Y14	Z14	X15	Y15	Z15	X16	Y16	Z16	X17	Y17	Z17	X18	Y18	Z18	X19	Y19	Z19	X20	Y20	Z20	X21	Y21	Z21	X22	Y22	Z22	X23	Y23	Z23	X24	Y24	Z24

241	0.96	0.16371469	0.014598906	0.0013878031	0.31553495	0.095610685	0.1310918	0.018649882	0.05177097	-0.046375776	0.17391902	0.13777129	0.14658701	0.034536914	0.071929692	0.051096501	0.20231805	0.16336441	0.053062312	-0.057027158	0.022006214	-0.0041492733	0.10728703	0.12130897	0.091524773	0.12601193	0.45371045	-0.101179	0.36051866	0.54760367	0.1741801	0.1194496	0.45750204	0.02458958	0.35741438	0.530803	0.049127292	0.13658721	0.87822118	-0.1584119	0.13735755	0.88834627	0.21207928	0.22475128	0.96263155	-0.097706474	0.21498264	0.97311224	0.14107094	0.060722771	1.0243403	0.021695875	0.24266207	1.4093825	-0.14490336	0.19289618	1.4364823	0.18031723	0.15285103	1.4750428	0.0070458621	0.10846121	1.0606485	-0.20942292	0.024182615	1.116047	0.2639171	0.2987773	0.86899215	-0.21225428	0.13494899	0.87008804	0.30806685
242	0.964	0.1636615	0.014526007	0.0014821791	0.33558799	0.095374675	0.13041195	0.018409855	0.052047525	-0.045961194	0.19288039	0.133665	0.14614831	0.03492444	0.072205928	0.051217692	0.22045857	0.16011766	0.052656172	-0.057095553	0.022460427	-0.0036850017	0.12672989	0.11563489	0.091255251	0.12674578	0.45373043	-0.10119049	0.36893223	0.5488942	0.17394535	0.12099967	0.45758222	0.02467906	0.36546676	0.53180719	0.048922059	0.14182253	0.87801045	-0.15848689	0.1435213	0.8881948	0.21204515	0.23051835	0.96211473	-0.098039955	0.22103432	0.97281389	0.1408212	0.066646202	1.0240457	0.021693734	0.24907412	1.40893	-0.14503896	0.19918733	1.4360107	0.18021292	0.15918279	1.4747054	0.0069020996	0.11504885	1.0598577	-0.20972872	0.030335134	1.1157996	0.26369094	0.30678563	0.86949172	-0.21158475	0.14013688	0.86958562	0.30855115
243	0.968	0.16365883	0.0144797	0.0015192652	0.35555486	0.095221317	0.12965899	0.018144428	0.052311666	-0.04549262	0.21192102	0.12967387	0.14569836	0.035272889	0.072492378	0.051401743	0.23862066	0.15698677	0.052240149	-0.057053136	0.022858113	-0.0031027281	0.14629085	0.11007484	0.090871993	0.12744555	0.4537709	-0.10119896	0.37724482	0.5500366	0.17377394	0.1225417	0.45770762	0.024604465	0.37344883	0.53266942	0.04874849	0.14723185	0.8777805	-0.15865023	0.14971512	0.88796894	0.21201265	0.23630469	0.9615606	-0.098378754	0.22709997	0.97245261	0.14056697	0.07259379	1.0237236	0.021710843	0.25546596	1.4084297	-0.14518295	0.20550523	1.4354943	0.18010566	0.16550907	1.4742998	0.0067743772	0.12156841	1.059015	-0.20993284	0.036501894	1.1154919	0.26347511	0.31477709	0.86994479	-0.21091975	0.14536568	0.86901842	0.30900657
244	0.972	0.16368139	0.014450371	0.0015209818	0.37544769	0.095099288	0.12884603	0.017978492	0.052558931	-0.04505498	0.23106873	0.12577931	0.14524331	0.035586353	0.072783465	0.051632987	0.25682231	0.15397868	0.051807642	-0.056964876	0.023244704	-0.0024431651	0.16600786	0.10465134	0.090380874	0.12819234	0.45382721	-0.10126598	0.38540311	0.55102619	0.17364568	0.12422032	0.45781987	0.024327006	0.38132398	0.53338123	0.048644069	0.15263351	0.8775062	-0.15888514	0.15593471	0.88766507	0.21198643	0.24212487	0.96096903	-0.098712048	0.23318712	0.97202753	0.14031575	0.078534399	1.0234022	0.02172831	0.26183622	1.4078833	-0.14533383	0.21185298	1.4349358	0.17999815	0.17183004	1.4738423	0.0066653459	0.12810256	1.058136	-0.21014682	0.042654171	1.1151227	0.26330097	0.32274909	0.87035083	-0.21025646	0.15064763	0.86839403	0.30943603
245	0.976	0.16368607	0.014433919	0.0015171037	0.39529612	0.094978659	0.12798789	0.017973606	0.052795659	-0.044715703	0.25030382	0.12198677	0.14476302	0.035889107	0.073075913	0.051888809	0.27506915	0.15109252	0.051367325	-0.056887532	0.023660741	-0.0017587358	0.18588632	0.099394196	0.089793311	0.12893131	0.45389532	-0.10138033	0.39335028	0.5518582	0.17354013	0.12606136	0.45788423	0.023891428	0.38903626	0.53393024	0.048632704	0.15775525	0.87714872	-0.15917397	0.16217535	0.88727969	0.211966	0.24798305	0.96033421	-0.099033747	0.2393043	0.97153587	0.14007374	0.084456583	1.0231051	0.021727651	0.26819503	1.4072927	-0.1454856	0.21822303	1.4343368	0.17989697	0.17815091	1.4733528	0.0065697182	0.13468626	1.0572308	-0.21041316	0.048791395	1.1146918	0.26317773	0.33069532	0.87070414	-0.20959528	0.155984	0.86771782	0.30984126
246	0.98	0.16364168	0.014433251	0.0015247557	0.41511321	0.094873024	0.12710813	0.018042335	0.053047823	-0.044427229	0.26955049	0.11833605	0.14423311	0.036204709	0.073369698	0.052168308	0.29335768	0.14832473	0.050936592	-0.056837297	0.024119428	-0.0010627858	0.2058529	0.094337115	0.089160817	0.129567	0.4539776	-0.10149409	0.40109834	0.55254333	0.17344506	0.12785203	0.45791261	0.023459769	0.39659003	0.53431662	0.048701746	0.16252475	0.87670138	-0.15949143	0.16843088	0.88681186	0.21194697	0.25386772	0.95965226	-0.09934583	0.24545178	0.97097664	0.13984358	0.090399306	1.0228094	0.021733788	0.27455021	1.4066618	-0.14563244	0.22460354	1.4336983	0.17980431	0.18447609	1.4728325	0.006484646	0.14131303	1.0562973	-0.21071608	0.054961966	1.1142022	0.26306373	0.33861191	0.87100093	-0.20893855	0.16136847	0.86699385	0.31022633
247	0.984	0.16356036	0.014443773	0.0015415807	0.43488772	0.094817561	0.12622836	0.018062017	0.053340699	-0.044089396	0.28874343	0.11487144	0.14366272	0.0365443	0.073665463	0.052480049	0.31168892	0.14567733	0.050512246	-0.056811484	0.024619397	-0.00035512451	0.22575331	0.089525901	0.088603501	0.13012015	0.45408385	-0.10159396	0.40872109	0.55309763	0.17334944	0.12921991	0.45796883	0.023250451	0.40404499	0.53455566	0.048813782	0.16719837	0.87621394	-0.15974589	0.17469353	0.88626615	0.21192529	0.25976433	0.95892623	-0.099652955	0.25162373	0.97035281	0.13962582	0.096415377	1.022425	0.021782284	0.2809043	1.4059949	-0.14577089	0.23099018	1.4330207	0.17971601	0.190807	1.4722678	0.0064091003	0.14796612	1.0553277	-0.21103025	0.061248668	1.1136543	0.26288423	0.34649757	0.87124229	-0.20828669	0.16679356	0.86622451	0.31059622
248	0.988	0.16350051	0.01444929	0.001548319	0.45460757	0.09483492	0.12535168	0.017978298	0.05367872	-0.043648125	0.30788354	0.11160503	0.14308683	0.036905633	0.073965187	0.052820374	0.33007104	0.1431582	0.050058624	-0.056801362	0.025154694	0.00036343308	0.24552292	0.084982547	0.08816603	0.13071025	0.45422114	-0.10170219	0.41623207	0.55352129	0.17327875	0.12997193	0.45809865	0.023359707	0.41144644	0.53466553	0.048940999	0.17214962	0.87574983	-0.15984928	0.18095553	0.8856533	0.21190275	0.26567115	0.9581653	-0.09995839	0.25781518	0.96966814	0.13942097	0.1024401	1.0218948	0.02173321	0.28725643	1.4052931	-0.14589939	0.23738255	1.4323044	0.17962954	0.19714501	1.4716559	0.0063434532	0.15463692	1.054317	-0.21133296	0.067687715	1.1130426	0.26260819	0.35435092	0.87143196	-0.20763822	0.17225419	0.86541004	0.31095197
249	0.992	0.16350533	0.014442937	0.0015247579	0.47427798	0.094931781	0.1244707	0.017785627	0.054054232	-0.043105924	0.3270163	0.10852855	0.14251898	0.037286414	0.074284369	0.053176309	0.34850393	0.14077952	0.049544857	-0.056792303	0.025719839	0.0010977175	0.26527478	0.080679932	0.087731803	0.13141181	0.45438786	-0.10183383	0.42354087	0.55379321	0.17331014	0.13032228	0.45828497	0.023656801	0.41879818	0.53465896	0.049088972	0.17756812	0.87532694	-0.15984371	0.18721214	0.88498364	0.21188739	0.27160022	0.95737921	-0.10026128	0.26402259	0.96892249	0.13922886	0.10822571	1.021294	0.021168498	0.29360284	1.4045569	-0.14601632	0.24377351	1.431552	0.17954893	0.20349073	1.471007	0.0062957583	0.16132486	1.0532651	-0.21160569	0.074212019	1.1123664	0.26229962	0.36217147	0.87157182	-0.20699066	0.1777539	0.86455017	0.31129103
250	0.996	0.16356763	0.014435311	0.0014608061	0.49391632	0.095115008	0.12358727	0.017496765	0.054466129	-0.042489832	0.34617896	0.10564384	0.14194367	0.037694358	0.074649406	0.053539341	0.36697094	0.13855763	0.048976814	-0.056769555	0.02631643	0.001856503	0.28512747	0.076582116	0.087190289	0.13218676	0.45458469	-0.10197537	0.430578	0.55389165	0.17348809	0.13071678	0.45849578	0.023903094	0.42609665	0.5345439	0.049276255	0.18337561	0.87491984	-0.1598318	0.19346042	0.884259	0.21188581	0.2775637	0.95657082	-0.10055373	0.27024645	0.96811425	0.13904869	0.11359353	1.0207136	0.019815717	0.29994095	1.403788	-0.14612026	0.25015344	1.4307691	0.17947982	0.20984121	1.470322	0.0062714531	0.16802924	1.0521734	-0.21184667	0.08071839	1.1116392	0.26205412	0.36996047	0.87166004	-0.20633851	0.18330523	0.86364884	0.31161254
251	1	0.16365866	0.014434381	0.001364906	0.51352453	0.095405999	0.1227204	0.017170491	0.054918559	-0.041847024	0.3653673	0.10296494	0.14134553	0.038138946	0.075071533	0.053907382	0.38544741	0.1365096	0.048377404	-0.056728172	0.026952799	0.0026400394	0.30508321	0.072679181	0.086544715	0.13295242	0.45482412	-0.102103	0.43738434	0.55381991	0.17375599	0.1315204	0.45870209	0.02392533	0.43336669	0.53431958	0.049487162	0.18931343	0.87449502	-0.159816	0.19969383	0.8834741	0.21189766	0.28355986	0.95573249	-0.10082848	0.27649538	0.96724561	0.13888374	0.11877724	1.0201281	0.018127988	0.30627327	1.4029901	-0.14621103	0.25652097	1.4299586	0.17942301	0.21619321	1.4695881	0.0062572162	0.17474622	1.0510455	-0.21206525	0.087172824	1.110877	0.26189944	0.37771711	0.8716933	-0.20567632	0.18891564	0.86271332	0.31191859
252	1.004	0.16374127	0.014438711	0.0012729187	0.53306426	0.095850928	0.12190207	0.016895586	0.055411683	-0.041232328	0.38454045	0.10050121	0.14071275	0.038613611	0.075534458	0.054277282	0.40390979	0.13464631	0.047763476	-0.056674086	0.027635945	0.0034321009	0.32509547	0.06897847	0.085821529	0.13369199	0.45510965	-0.10222225	0.44406456	0.55360286	0.17400771	0.13280808	0.45887922	0.023702604	0.44066269	0.5339695	0.049652266	0.19510734	0.87402724	-0.15971968	0.20590526	0.88262863	0.21191913	0.28957233	0.95485104	-0.10108721	0.28277804	0.96632231	0.13874162	0.12425529	1.0194877	0.016951173	0.31260371	1.4021676	-0.14628833	0.26288	1.4291188	0.17937634	0.22254463	1.4687942	0.0062321035	0.18147179	1.0498909	-0.2122618	0.093613891	1.1100823	0.26179489	0.38543499	0.87167075	-0.2050067	0.19457902	0.86174678	0.31221195
253	1.008	0.16378209	0.014445319	0.0012257742	0.55247997	0.096505513	0.12116357	0.016714879	0.055943224	-0.040674977	0.40365334	0.098242452	0.14001936	0.039097201	0.076014463	0.05463736	0.42233853	0.13297122	0.047149159	-0.056613739	0.028369007	0.0042086128	0.34513233	0.0654954	0.085010169	0.13452252	0.45540439	-0.10238993	0.45069332	0.55325797	0.17418464	0.13437099	0.45904054	0.0233489	0.44806305	0.53347165	0.049670148	0.20065207	0.87350371	-0.15952816	0.21209279	0.88173091	0.21194647	0.29558645	0.95391982	-0.10133554	0.28909376	0.96535206	0.13862438	0.13021798	1.0187937	0.016617201	0.31893359	1.4013233	-0.14635136	0.26923272	1.4282498	0.17934211	0.22889042	1.4679404	0.0061929594	0.18820388	1.0487229	-0.21242984	0.10008537	1.1092497	0.2616985	0.39310705	0.87159606	-0.20433799	0.20028518	0.86074965	0.31249598
